<?xml version="1.0" standalone="no"?><!DOCTYPE svg PUBLIC "-//W3C//DTD SVG 1.1//EN" "http://www.w3.org/Graphics/SVG/1.1/DTD/svg11.dtd"><svg t="1526971228687" class="icon" style="" viewBox="0 0 1024 1024" version="1.1" xmlns="http://www.w3.org/2000/svg" p-id="16787" xmlns:xlink="http://www.w3.org/1999/xlink" width="200" height="200"><defs><style type="text/css"></style></defs><path d="M135.561181 510.919831l212.253165-93.434599-24.843882-230.075949L196.590717 221.434599 69.130802 255.459916l-0.540085 0.540084v3.240506l33.485232 124.759494zM512 322.43038l186.869198-136.64135-91.814346-91.814346L513.620253 0.540084l-1.620253-0.540084-0.540084 0.540084-93.4346 92.894515-92.894514 92.354431zM676.185654 417.485232l212.793249 93.434599 33.485232-125.839662 32.945148-125.299578v-3.780591L827.949367 221.434599l-126.919831-34.025316zM888.438819 513.080169l-212.253165 93.974683 25.383966 230.616034 124.759494-34.025316 127.459916-34.025317 1.620253-1.620253v-2.700422l-32.945148-125.299578zM512 701.56962l-187.409283 137.181435 93.434599 92.894515 91.274262 91.274261 2.700422 1.080169 92.894515-92.35443 93.434599-93.4346h0.540084zM347.814346 607.054852L135.561181 513.080169l-33.485232 126.379747L68.590717 764.219409v3.780591l3.240507 2.160338 124.759493 33.485232 126.379747 34.025316z" fill="#f4ea2a" p-id="16788"></path></svg>