<?xml version="1.0" encoding="utf-8"?>
<!-- Generator: Adobe Illustrator 16.0.0, SVG Export Plug-In . SVG Version: 6.00 Build 0)  -->
<!DOCTYPE svg PUBLIC "-//W3C//DTD SVG 1.1//EN" "http://www.w3.org/Graphics/SVG/1.1/DTD/svg11.dtd">
<svg version="1.1" id="图层_1" xmlns="http://www.w3.org/2000/svg" xmlns:xlink="http://www.w3.org/1999/xlink" x="0px" y="0px"
	 width="200px" height="200px" viewBox="0 0 200 200" enable-background="new 0 0 200 200" xml:space="preserve">
<path fill="#CDCDCD" d="M171.416,159.06c0,7.771-6.311,12.524-14.068,12.524h-51.162H89.721H41.685
	c-7.756,0-14.067-4.754-14.067-12.524v-3.376c0-7.12,5.242-13.432,11.933-15.834l28.642-12.766c0,0,7.764-2.387,9.889-4.769
	c1.414-1.586,1.851-6.816,0.058-10.25c-1.792-3.433-16.304-22.322-16.304-38.166c0-25.551,16.795-46.265,37.512-46.265
	c20.717,0,37.512,20.714,37.512,46.265c0,16.542-16.285,34.753-17.625,39.233c-1.34,4.482-1.447,7.989,0.065,9.479
	c2.354,2.313,8.411,4.665,8.411,4.665l31.771,12.382c6.691,2.402,11.934,8.906,11.934,16.025V159.06L171.416,159.06z"/>
</svg>
