<?xml version="1.0" standalone="no"?><!DOCTYPE svg PUBLIC "-//W3C//DTD SVG 1.1//EN" "http://www.w3.org/Graphics/SVG/1.1/DTD/svg11.dtd"><svg t="1526971669468" class="icon" style="" viewBox="0 0 1024 1024" version="1.1" xmlns="http://www.w3.org/2000/svg" p-id="35214" xmlns:xlink="http://www.w3.org/1999/xlink" width="200" height="200"><defs><style type="text/css"></style></defs><path d="M360.17237514 363.77201344h295.04182895s41.26728799-5.01378249 42.6814322-43.3242242-19.54089586-54.25169926-42.6814322-54.89449342c-23.14053631-0.77135213-164.16924411 0-164.16924412 0s-23.91188629-173.55401705-188.72392457-171.3685229c-164.81203611 2.18549414-219.06373756 55.66584342-208.26482046 175.73951336s28.15431878 245.16111799 28.15431882 245.16111799 7.97062878 47.05242266 44.8669263 46.28107265c36.89629754-0.77135213 54.12314129-18.3838698 55.6658456-75.20674146 1.54270212-55.53728545-1.41414415-122.38772207 137.42906948-122.38772202zM663.82762486 660.22798656H368.78579591s-41.26728799 5.01378249-42.6814322 43.3242242c-1.41414415 38.31044172 19.54089586 54.25169926 42.6814322 54.89449342 23.14053631 0.77135213 164.16924411 0 164.16924412 0s23.91188629 173.55401705 188.72392457 171.3685229c164.81203611-2.18549414 219.06373756-55.66584342 208.26482046-175.73951336-10.79891709-120.07366775-28.15431878-245.16111799-28.15431882-245.16111799s-7.97062878-47.05242266-44.8669263-46.28107265c-36.89629754 0.77135213-54.12314129 18.3838698-55.6658456 75.20674146-1.54270212 55.53728545 1.41414415 122.38772207-137.42906948 122.38772202z" p-id="35215"></path></svg>