<?xml version="1.0" standalone="no"?><!DOCTYPE svg PUBLIC "-//W3C//DTD SVG 1.1//EN" "http://www.w3.org/Graphics/SVG/1.1/DTD/svg11.dtd"><svg t="1526971890569" class="icon" style="" viewBox="0 0 1025 1024" version="1.1" xmlns="http://www.w3.org/2000/svg" p-id="42573" xmlns:xlink="http://www.w3.org/1999/xlink" width="200.1953125" height="200"><defs><style type="text/css"></style></defs><path d="M1021.763852 464.804141l-0.517287 0.044804c-2.099698-20.126351-17.98083-36.097091-38.060339-38.046083l-8.639107 0-14.724363 0 0-0.335015c-25.132227 0-46.945871-14.480993-57.319113-35.610352-2.49581-5.1576-4.383705-10.618648-5.415226-16.520613-4.748251-13.111403-10.102379-25.889829-16.065441-38.40961 0-0.045823 0-0.045823-0.121176-0.045823-2.981531-4.426473-5.35311-9.21851-7.180927-14.329269 0-0.107938 0-0.107938 0-0.107938-2.37158-6.631055-3.617957-13.873079-3.617957-21.265808 0-17.706912 7.026148-33.709219 18.738432-45.255522l-0.091645 0 13.021795-12.930149c0.183291-0.166998 0.304466-0.288174 0.487757-0.441935 0.181254-0.229114 0.333997-0.303448 0.425642-0.517287 15.21212-15.652018 15.940192-39.946198 2.434713-56.52689l0.303448-0.199583c-9.980185-11.969909-20.414524-23.439841-31.337639-34.272329-11.257111-11.256093-22.968377-21.994899-35.197948-32.112552l-0.152742 0.151724c-14.96875-12.275394-36.387301-12.670487-51.902869-1.337005l-9.371252 9.340704-8.822398 8.68493-0.39713-0.364545c-18.647805 18.681408-45.908241 23.427622-68.9703 14.162271-3.163803-1.275908-6.145334-2.751399-9.127883-4.518119-14.724363-7.056697-29.815307-13.371065-45.422521-18.725194-2.76871-0.700578-5.476322-1.673038-8.183935-2.767691 0 0-0.060079 0-0.060079-0.046841-7.605551-2.981531-14.847575-7.726726-21.054006-13.933157-10.464888-10.464888-16.488028-23.716814-18.253729-37.223311-0.700578-5.29405-0.700578-10.664471 0-16.003325l0-10.997449c0-20.991891-15.15306-38.410628-35.110375-42.015348-2.492755-0.228095-4.989583-0.425642-7.485394-0.593659l0.123212 0c-14.177545-1.094654-28.354072-1.735153-42.774986-1.735153-14.23966 0-28.478302 0.639481-42.593732 1.809488-2.46628 0.122194-4.99162 0.350289-7.394766 0.638463-19.987864 3.483544-35.199984 20.978653-35.199984 41.895191l0 18.999112c0 27.488532-17.219154 50.854039-41.558139 59.90555-1.522332 0.667993-3.103725 1.154732-4.687154 1.581392-17.097979 5.796063-33.64914 12.626701-49.407059 20.551993-0.243369 0-0.243369 0.075353-0.304466 0.075353-1.278963 0.700578-2.496828 1.309511-3.773754 1.887895-8.153387 3.771718-17.128527 5.795045-26.651504 5.795045-17.645815 0-33.64914-7.134086-45.180169-18.741487l-0.060079 0.10692-13.479003-13.417906c-14.846557-14.891361-37.785403-16.443223-54.398679-4.972273-1.884841 1.595648-3.801248 3.162785-5.597498 4.698355-0.183291 0.169035-0.212821 0.230132-0.303448 0.273918-10.860999 9.234803-21.358472 18.818876-31.3967 28.843866-9.979167 10.055538-19.593789 20.519408-28.813317 31.320328 0 0-0.02953 0-0.02953 0.061097-1.67202 1.9327-3.287015 3.818559-4.866371 5.825593-11.622675 16.626514-10.041282 39.628494 4.866371 54.413954l13.387358 13.493259c19.347365 19.395224 23.73107 48.070055 13.080855 71.617834-0.698542 1.475491-1.39912 2.936726-2.190325 4.382687-7.910017 15.819016-14.754911 32.293806-20.445073 49.240061-0.517287 1.841054-1.217866 3.590464-1.824762 5.309324 0 0 0 0 0 0.075353-3.102706 8.031193-7.911036 15.759956-14.48303 22.209756-12.534037 12.47294-28.780732 18.756761-45.149621 18.756761l0 0.16598L44.424604 426.80388c-20.991891 0-38.455433 15.136767-41.984799 35.111394-0.243369 2.386854-0.548854 4.89692-0.731127 7.42226-1.156769 13.797726-1.702568 28.630026-1.702568 42.624281 0 0.169035 0 0.273918 0 0.349271 0 0.138486 0 0.29021 0 0.365563 0 14.131722 0.545799 28.128013 1.702568 41.923702l0 0.045823c0.183291 2.49581 0.487757 5.005876 0.731127 7.424297 3.529367 19.988882 20.900245 35.170454 41.862605 35.170454 0 0 0 0 0.030548 0l19.135562 0c27.138243 0 50.353044 17.034845 59.632651 41.039833 0 0.062115 0 0.062115 0 0.062115 0.546818 1.583429 1.154732 3.19537 1.460217 4.792037 0.122194 0.016293 0.122194 0.196528 0.212821 0.318722 5.718674 17.023644 12.625683 33.557495 20.505152 49.439644 0.091645 0.045823 0.091645 0.257625 0.151724 0.273918 0.730108 1.218884 1.339041 2.513121 1.887895 3.849107 3.801248 8.122838 5.840868 17.189624 5.840868 26.63623 0 17.614248-7.11983 33.618592-18.710938 45.178133l0.030548 0.063134-12.961716 13.019758c-0.183291 0.075353-0.335015 0.318722-0.486739 0.424624-0.244388 0.184309-0.365563 0.305485-0.42666 0.519324-14.208094 14.651046-15.849565 36.966704-4.806293 53.362068 1.762647 2.253459 3.711639 4.504881 5.536401 6.664658 9.127883 10.721495 18.620311 21.051969 28.599478 31.01688 10.008697 10.010734 20.322879 19.578515 31.091215 28.703343 2.192362 1.843091 4.382687 3.619994 6.511916 5.432536 14.847575 9.948619 34.502461 9.567781 48.922357-0.990789l9.371252-9.32543 8.76232-8.715479 0.364545 0.259662c19.378931-19.306633 48.131152-23.685247 71.800106-12.900619 1.157787 0.471465 2.433695 1.111964 3.590464 1.720897 0 0.072298 0.122194 0.072298 0.305485 0.164962 16.061367 7.999626 32.644095 14.907654 49.86325 20.765832 1.491784 0.410368 2.981531 0.927655 4.412217 1.444943 8.335659 3.164822 16.18458 7.999626 22.999943 14.740655 12.473959 12.458684 18.801565 28.78175 18.801565 45.164895l0.122194 0 0 18.831095c0 21.982679 16.671319 40.175312 38.211045 42.337125l0 0.2729c15.425959 1.459199 31.09427 2.189307 46.855244 2.189307 15.939174 0 31.578972-0.731127 47.095558-2.189307l-0.183291-0.2729c21.539726-2.161813 38.334257-20.354446 38.334257-42.337125L597.165571 960.212757c0-25.691264 15.150005-47.782899 36.811925-57.958594 4.471278-2.112936 9.127883-3.63425 13.993236-4.669843 14.057388-4.897938 27.626-10.555515 40.922731-16.975785 3.802266-2.524322 8.000644-4.669843 12.260119-6.162645 6.967088-2.677064 14.513578-4.120989 22.453126-4.120989 16.186616 0 31.033173 6.085255 42.349344 16.154031 1.887895 1.612959 3.712657 3.422447 5.476322 5.444756l10.925151 10.923115 0.028512-0.043786c14.908672 14.998281 38.456451 16.444242 55.128788 4.395925 0.030548 0 0.090627-0.047859 0.183291-0.170053 1.39912-1.168988 2.737143-2.29419 4.077203-3.404118 11.224526-9.480209 21.966387-19.306633 32.309081-29.679875 10.224573-10.267341 20.140606-21.052987 29.572956-32.218453 1.217866-1.507058 2.435731-2.919415 3.65156-4.457022 11.682753-16.064422 10.648178-38.364806-2.830825-53.427238l-0.027494-0.02953-3.16584-3.025317-11.865026-11.896593 0-0.063134c-19.10705-19.043916-23.608876-47.20146-13.4454-70.491614 0.912381-2.161813 1.886877-4.320572 3.103725-6.360192 7.573984-15.409667 14.176527-31.274506 19.775043-47.65765 0.607915-2.253459 1.308493-4.395925 2.250404-6.403978 3.041609-8.000644 7.78986-15.487056 14.268172-21.891034 12.473959-12.504507 28.75222-18.755743 45.212754-18.755743l0-0.02953 18.344356 0 0-0.244388c22.817671 0 41.500097-17.919733 42.532635-40.37184l0.639481 0.030548c1.309511-14.739637 1.917426-29.64729 1.917426-44.69343C1024.016293 496.049116 1023.287202 480.304435 1021.763852 464.804141zM511.980143 850.684272c-187.046247 0-338.650159-151.632424-338.650159-338.677653 0-187.046247 151.603912-338.680708 338.650159-338.680708 187.046247 0 338.67969 151.634461 338.67969 338.680708C850.658815 699.051848 699.025373 850.684272 511.980143 850.684272z" p-id="42574"></path></svg>