<?xml version="1.0" standalone="no"?><!DOCTYPE svg PUBLIC "-//W3C//DTD SVG 1.1//EN" "http://www.w3.org/Graphics/SVG/1.1/DTD/svg11.dtd"><svg t="1527232516737" class="icon" style="" viewBox="0 0 1024 1024" version="1.1" xmlns="http://www.w3.org/2000/svg" p-id="42072" xmlns:xlink="http://www.w3.org/1999/xlink" width="200" height="200"><defs><style type="text/css"></style></defs><path d="M152.164309 290.38837l12.06999-52.874115s57.043103-35.961957 74.404048-74.404048c17.349134-38.430281 88.02117-116.554532 138.863936-80.592575 50.830956 35.961957 74.392238 83.07271 38.430281 162.437028-35.950146 79.352508-290.140356 301.300964-290.140356 301.300964S7.997608 646.689278 52.640037 805.394293c44.642429 158.716825 133.903666 183.518175 203.347444 198.398985 187.132086 40.083705 402.455038 23.679384 566.982466-78.655708 50.145966-31.178839 91.150864-68.227331 108.771632-112.302872 32.241754-80.592575 18.601012-89.273047 18.601012-89.273047l-80.592575 80.592575c54.149613-111.570641 112.763468-203.855281 111.712363-331.511369a697.626526 697.626526 0 0 0-8.798574-106.173396c-19.829269-121.514801-34.721889-138.887556-40.910416-138.887556-6.200337 0 0 102.9256-33.481822 174.837703-33.481822 71.923913-119.034667 179.786162-208.307713 197.147107-89.284858 17.360945-119.046477-7.440405-119.046477-7.440405l186.01012-74.392238s66.951833-74.404048 74.392237-106.633992c7.440405-32.241754-68.203711 68.1919-126.486881 85.552845-58.271361 17.360945-105.382114-8.680472-264.09894 40.922226-158.705015 49.602699-190.946769 80.592575-213.267983 91.753183-22.321214 11.160607 7.440405-79.364318 90.513114-148.796286C401.063565 411.11189 496.536949 328.02737 508.937624 232.553985c12.400675-95.473385-19.841079-204.587511-94.245128-223.188523C340.300259-9.23555 221.265592-4.27528 172.914771 62.676553c-43.154348 59.735821-61.342004 99.347119-44.406225 175.995099l14.337542 64.908674 9.330031-13.191956z" fill="#FF0000" p-id="42073"></path></svg>