<?xml version="1.0" standalone="no"?><!DOCTYPE svg PUBLIC "-//W3C//DTD SVG 1.1//EN" "http://www.w3.org/Graphics/SVG/1.1/DTD/svg11.dtd"><svg t="1527231680922" class="icon" style="" viewBox="0 0 1024 1024" version="1.1" xmlns="http://www.w3.org/2000/svg" p-id="25310" xmlns:xlink="http://www.w3.org/1999/xlink" width="200" height="200"><defs><style type="text/css"></style></defs><path d="M556.6 436.7l-63.7 115.5h45.9v32.9h-55.4v28.4h55.4v32.9h-55.4v47.7H431v-47.7h-57.2v-32.9H431v-28.4h-57.2v-32.9h46.9l-61.9-115.5H414l45.2 103.6h0.7c1.4-3.9 3.7-9.5 6.8-16.8l37.4-86.8h52.5zM13.5 831.6h872.6V706h124.3V181.9H137.8v125.6H13.5v524.1z m872.7-183.7V307.5H208.1v-68.8h747v409.2h-68.9zM83.8 773.5V364.4h747v409.2h-747z" fill="#FF9900" p-id="25311"></path></svg>