<?xml version="1.0" standalone="no"?><!DOCTYPE svg PUBLIC "-//W3C//DTD SVG 1.1//EN" "http://www.w3.org/Graphics/SVG/1.1/DTD/svg11.dtd"><svg t="1527232693900" class="icon" style="" viewBox="0 0 1024 1024" version="1.1" xmlns="http://www.w3.org/2000/svg" p-id="46528" xmlns:xlink="http://www.w3.org/1999/xlink" width="200" height="200"><defs><style type="text/css"></style></defs><path d="M936.96 151.04H87.04c-42.496 0-76.8 34.304-76.8 76.8v567.808c0 42.496 34.304 76.8 76.8 76.8h849.92c42.496 0 76.8-34.304 76.8-76.8V227.84c0-42.496-34.304-76.8-76.8-76.8zM228.352 303.104c52.224 0 94.72 42.496 94.72 94.72s-42.496 94.72-94.72 94.72-94.72-42.496-94.72-94.72c0.512-52.224 42.496-94.72 94.72-94.72z m604.672 414.72H190.976c-29.696 0-53.248-24.064-53.248-53.248s24.064-53.248 53.248-53.248h642.048c29.696 0 53.248 24.064 53.248 53.248s-23.552 53.248-53.248 53.248z" fill="#1296db" p-id="46529"></path></svg>