<?xml version="1.0" encoding="utf-8"?>
<!-- Generator: Adobe Illustrator 16.0.0, SVG Export Plug-In . SVG Version: 6.00 Build 0)  -->
<!DOCTYPE svg PUBLIC "-//W3C//DTD SVG 1.1//EN" "http://www.w3.org/Graphics/SVG/1.1/DTD/svg11.dtd">
<svg version="1.1" id="图层_1" xmlns="http://www.w3.org/2000/svg" xmlns:xlink="http://www.w3.org/1999/xlink" x="0px" y="0px"
	 width="200px" height="200px" viewBox="0 0 200 200" enable-background="new 0 0 200 200" xml:space="preserve">
<path d="M100,200C45,200,0,155,0,100S45,0,100,0s100,45,100,100S155,200,100,200z M100,5C47.5,5,5,47.5,5,100s42.5,95,95,95
	s95-42.5,95-95S152.5,5,100,5z"/>
<path d="M36.5,163.5L89,89l74-52l-52.5,74.5L36.5,163.5z M96,100c0,2.209,1.791,4,4,4s4-1.791,4-4s-1.791-4-4-4S96,97.791,96,100
	L96,100z"/>
</svg>
