<?xml version="1.0" encoding="utf-8"?>
<!-- Generator: Adobe Illustrator 16.0.0, SVG Export Plug-In . SVG Version: 6.00 Build 0)  -->
<!DOCTYPE svg PUBLIC "-//W3C//DTD SVG 1.1//EN" "http://www.w3.org/Graphics/SVG/1.1/DTD/svg11.dtd">
<svg version="1.1" id="图层_1" xmlns="http://www.w3.org/2000/svg" xmlns:xlink="http://www.w3.org/1999/xlink" x="0px" y="0px"
	 width="228.516px" height="200px" viewBox="0 0 228.516 200" enable-background="new 0 0 228.516 200" xml:space="preserve">
<path d="M0,190.477c0,2.629,2.132,4.764,4.762,4.764l0,0h200c2.63,0,4.762-2.135,4.762-4.764l0,0
	c0-24.123-12.666-34.896-45.257-47.305c-12-4.477-18.15-6.818-24.295-9.457c-17.296-7.41-19.333-13-15.096-18.515
	c0.714-0.935,1.429-1.601,1.79-1.866c15.275-12.725,22.753-28.553,24.258-47.296c1.313-16.248,0.419-29.076-3.647-39.238
	c-3.886-9.714-10.829-16.667-19.81-21.152c-4.891-2.41-10.113-4.076-15.495-4.943c-2.381-0.422-4.792-0.658-7.21-0.705
	c-1.533,0-4.038,0.181-7.209,0.705C92.17,1.571,86.947,3.237,82.057,5.647c-8.979,4.496-15.924,11.429-19.81,21.152
	C58.181,36.961,57.285,49.79,58.6,66.037c1.505,18.743,8.981,34.57,24.066,47.145c0.553,0.418,1.267,1.084,1.979,2.02
	c4.238,5.521,2.19,11.104-15.095,18.515c-6.143,2.64-12.286,4.979-24.295,9.457C12.667,155.581,0,166.354,0,190.477z"/>
<path d="M48.647,152.066c11.943-4.447,18.307-6.866,24.657-9.59c22.638-9.705,27.219-22.248,18.896-33.076
	c-1.042-1.383-2.264-2.623-3.631-3.688C75.752,95.019,69.41,81.581,68.095,65.276c-1.209-14.905-0.4-26.448,2.991-34.934
	c2.971-7.429,8.219-12.667,15.238-16.181c4.037-1.979,8.35-3.347,12.791-4.057c2.617-0.438,4.607-0.581,5.646-0.581
	s3.029,0.143,5.648,0.571c4.381,0.733,8.762,2.048,12.791,4.067c7.019,3.504,12.267,8.762,15.235,16.181
	c3.393,8.486,4.201,20.029,3,34.934c-1.322,16.305-7.666,29.743-20.676,40.591c-1.289,1.021-2.441,2.207-3.428,3.523
	c-8.334,10.838-3.753,23.381,18.885,33.086c6.353,2.724,12.715,5.143,24.667,9.59c26.647,10.15,37.22,18.039,38.876,33.646h-190
	C11.419,170.096,21.99,162.219,48.647,152.066L48.647,152.066z"/>
<rect x="171.429" y="47.619" width="57.143" height="9.524"/>
<rect x="190.477" y="85.714" width="38.095" height="9.524"/>
<rect x="200" y="123.811" width="28.569" height="9.523"/>
</svg>
