<?xml version="1.0" encoding="utf-8"?>
<!-- Generator: Adobe Illustrator 16.0.0, SVG Export Plug-In . SVG Version: 6.00 Build 0)  -->
<!DOCTYPE svg PUBLIC "-//W3C//DTD SVG 1.1//EN" "http://www.w3.org/Graphics/SVG/1.1/DTD/svg11.dtd">
<svg version="1.1" id="图层_1" xmlns="http://www.w3.org/2000/svg" xmlns:xlink="http://www.w3.org/1999/xlink" x="0px" y="0px"
	 width="228.516px" height="200px" viewBox="0 0 228.516 200" enable-background="new 0 0 228.516 200" xml:space="preserve">
<path d="M48.647,152.066c11.943-4.447,18.305-6.866,24.657-9.59c22.638-9.705,27.219-22.248,18.896-33.076
	c-1.042-1.383-2.262-2.623-3.629-3.686C75.752,95.019,69.41,81.581,68.095,65.276c-1.209-14.905-0.4-26.448,2.991-34.934
	c2.971-7.429,8.219-12.667,15.238-16.181c4.039-1.979,8.35-3.347,12.791-4.057c2.619-0.438,4.609-0.581,5.647-0.581
	s3.029,0.143,5.648,0.571c4.381,0.733,8.762,2.048,12.791,4.067c7.019,3.504,12.267,8.762,15.237,16.181
	c3.391,8.486,4.201,20.029,3,34.934c-1.323,16.305-7.666,29.743-20.676,40.591c-1.289,1.022-2.441,2.207-3.428,3.523
	c-8.334,10.838-3.753,23.381,18.885,33.086c6.353,2.724,12.715,5.143,24.667,9.59c26.647,10.152,37.22,18.039,38.876,33.648h-190
	C11.419,170.096,21.99,162.219,48.647,152.066L48.647,152.066z M0,190.477c0,2.629,2.132,4.762,4.762,4.762l0,0h200
	c2.63,0,4.762-2.133,4.762-4.762l0,0c0-24.124-12.666-34.896-45.257-47.305c-12-4.477-18.152-6.819-24.295-9.457
	c-17.296-7.41-19.333-13-15.096-18.515c0.714-0.934,1.429-1.601,1.79-1.866c15.277-12.725,22.753-28.553,24.258-47.296
	c1.314-16.248,0.419-29.076-3.647-39.238c-3.886-9.714-10.829-16.667-19.81-21.152c-4.891-2.41-10.113-4.076-15.495-4.943
	c-2.381-0.422-4.792-0.658-7.21-0.705c-1.533,0-4.038,0.181-7.209,0.705C92.17,1.571,86.947,3.237,82.057,5.647
	c-8.981,4.496-15.924,11.429-19.81,21.152c-4.066,10.162-4.962,22.991-3.647,39.238c1.505,18.743,8.981,34.571,24.066,47.144
	c0.553,0.418,1.267,1.085,1.981,2.019c4.238,5.523,2.19,11.104-15.095,18.515c-6.143,2.638-12.286,4.98-24.295,9.457
	C12.667,155.581,0,166.353,0,190.477z"/>
<rect x="171.429" y="47.619" width="57.143" height="9.524"/>
<rect x="190.477" y="85.714" width="38.095" height="9.524"/>
<rect x="200" y="123.81" width="28.571" height="9.524"/>
</svg>
