<?xml version="1.0" standalone="no"?><!DOCTYPE svg PUBLIC "-//W3C//DTD SVG 1.1//EN" "http://www.w3.org/Graphics/SVG/1.1/DTD/svg11.dtd"><svg t="1527232373081" class="icon" style="" viewBox="0 0 1025 1024" version="1.1" xmlns="http://www.w3.org/2000/svg" p-id="37133" xmlns:xlink="http://www.w3.org/1999/xlink" width="200.1953125" height="200"><defs><style type="text/css"></style></defs><path d="M36.165 104.061h802.437v172.482h186.48v175.162c0 13.849-0.146 24.168-1.016 34.545-0.862 10.323-2.448 20.592-5.324 34.337l-0.046 0.2-0.117 0.387C965.414 695.287 861.711 809.921 740.001 871.24c-83.772 42.209-176.028 59.13-266.203 52.803-90.183-6.331-178.313-35.923-253.819-86.736C111.052 763.999 28.408 646.56 3.778 491.091l-0.075-0.487-0.004-0.554-1.394-350.033c-0.345-3.409-0.287-6.619 0.117-9.607 1.061-7.859 4.496-14.099 9.287-18.578 4.795-4.479 10.914-7.122 17.362-7.805a31.878 31.878 0 0 1 7.093 0.033zM826.16 337.545c-0.591-18.361-1.166-36.219-1.211-52.195l-17.72-0.021v0.025H218.754c-8.234 0.612-13.266 2.922-15.909 6.494-2.743 3.705-3.388 9.274-2.668 16.055l0.054 0.504v0.221c0 14.09-0.441 29.621-0.878 45.218-1.482 52.378-2.985 105.589 13.345 154.524 33.842 101.393 98.304 165.946 173.335 197.878 35.461 15.094 73.278 22.928 111.341 23.943 38.138 1.016 76.546-4.791 113.081-16.988 84.105-28.073 158.32-89.979 196.766-180.307 23.46-55.117 21.088-128.649 18.94-195.351z" fill="#d9874b" p-id="37134"></path></svg>