<?xml version="1.0" encoding="utf-8"?>
<!-- Generator: Adobe Illustrator 16.0.0, SVG Export Plug-In . SVG Version: 6.00 Build 0)  -->
<!DOCTYPE svg PUBLIC "-//W3C//DTD SVG 1.1//EN" "http://www.w3.org/Graphics/SVG/1.1/DTD/svg11.dtd">
<svg version="1.1" id="图层_1" xmlns="http://www.w3.org/2000/svg" xmlns:xlink="http://www.w3.org/1999/xlink" x="0px" y="0px"
	 width="200px" height="200px" viewBox="0 0 200 200" enable-background="new 0 0 200 200" xml:space="preserve">
<path fill="#29ABE2" d="M163.211,59.036c-1.46,2.589-4.727,3.477-7.3,2.017l-16.979,29.352c-2.363,4.154-2.242,9.332,0.105,13.607
	c6.744,11.574,7.301,26.296,0.105,38.895l-13.803,22.066c-13.486-1.461-25.964-4.606-36.862-9.332
	c-0.452-0.227-0.783-0.332-1.234-0.452c-13.035-5.614-28.433-9.212-45.186-9.784c-2.017-0.226-4.049-0.226-6.066-0.226
	c-0.783,0-1.46,0-2.243,0.105l-0.677-0.452l28.193-46.917c7.751-13.486,22.262-20.456,36.757-19.447
	c5.179,0.452,10.235-2.017,12.81-6.518l15.955-27.771c-2.469-1.46-3.371-4.726-1.912-7.3c1.461-2.589,4.727-3.372,7.301-1.912
	l29.021,16.768C163.783,53.195,164.672,56.462,163.211,59.036z M154.195,43.652l-10.793-6.247c-1.761-1.023-2.363-3.266-1.34-5.027
	l7.075-12.252c1.023-1.761,3.267-2.363,5.027-1.339l16.753,9.663c2.348,1.355,2.469,4.711,0.226,6.232l-13.021,8.82
	C156.935,44.3,155.43,44.345,154.195,43.652z"/>
<path fill="#29ABE2" d="M190.5,164.461c-16.691,13.832-42.506,22.593-71.045,22.593c-1.973,0-3.959,0-5.931-0.226
	c-0.331,0-0.768,0-1.099-0.105c-9.664-0.331-18.891-1.807-27.35-4.154c-8.128-2.138-15.594-5.178-22.397-8.655
	c-0.662-0.451-1.535-0.903-2.529-1.354c-14.826-7.978-33.822-12.81-54.248-13.155c7.36-1.687,15.052-2.589,22.955-2.921
	c1.761-0.105,3.507-0.105,5.268-0.105c1.972,0,3.958,0,5.931,0.227c0.437,0,0.768,0,1.204,0.105
	c15.925,0.678,30.525,4.154,42.943,9.663c0.437,0.105,0.768,0.226,1.205,0.452c9.889,4.38,21.088,7.42,33.159,8.986
	c5.494,0.677,11.094,1.008,16.919,1.008c10.536,0,20.757-1.234,30.315-3.477C174.786,171.204,183.141,168.164,190.5,164.461z"/>
</svg>
