<?xml version="1.0" encoding="utf-8"?>
<!-- Generator: Adobe Illustrator 16.0.0, SVG Export Plug-In . SVG Version: 6.00 Build 0)  -->
<!DOCTYPE svg PUBLIC "-//W3C//DTD SVG 1.1//EN" "http://www.w3.org/Graphics/SVG/1.1/DTD/svg11.dtd">
<svg version="1.1" id="图层_1" xmlns="http://www.w3.org/2000/svg" xmlns:xlink="http://www.w3.org/1999/xlink" x="0px" y="0px"
	 width="200px" height="200px" viewBox="0 0 200 200" enable-background="new 0 0 200 200" xml:space="preserve">
<g>
	<path fill="#FA5452" d="M100.145,0.667c-3.794,0-7.522,0.223-11.207,0.646c-8.843,0.999-17.509,3.192-25.763,6.52
		c0,0,67.036,66.103,68.812,68.528V5.896c-1.998-0.712-4.062-1.292-6.126-1.825C117.63,1.868,109.021,0.667,100.145,0.667z"/>
	<path fill="#6467F0" d="M170.132,29.369c-2.708-2.692-5.526-5.117-8.389-7.454c-6.983-5.511-14.669-10.067-22.854-13.549
		c0,0,0.486,93.938,0,96.896l50.038-49.86c-0.909-1.892-1.952-3.783-3.04-5.607C181.625,42.54,176.412,35.644,170.132,29.369z"/>
	<path fill="#5283F0" d="M192.122,63.321c0,0-66.325,66.794-68.767,68.573h70.72c0.71-2.002,1.31-4.049,1.843-6.097
		c2.219-8.21,3.416-16.731,3.416-25.565c0-3.782-0.221-7.499-0.643-11.169C197.647,79.986,195.361,71.398,192.122,63.321
		L192.122,63.321z"/>
	<path fill="#00B1FE" d="M93.754,139.281l50.038,49.862c1.92-0.931,3.8-1.94,5.636-3.026c7.525-4.297,14.443-9.58,20.57-15.709
		c2.662-2.646,5.148-5.496,7.479-8.366c5.637-7.074,10.185-14.728,13.58-22.761C191.035,139.281,96.771,139.771,93.754,139.281z"/>
	<path fill="#66D020" d="M68.08,123.641v70.464c1.997,0.712,4.061,1.291,6.125,1.824c8.37,2.261,17.003,3.405,25.673,3.403
		c3.794,0,7.522-0.221,11.205-0.645c8.844-0.998,17.51-3.191,25.764-6.52C136.848,192.168,69.877,126.065,68.08,123.641z"/>
	<path fill="#9AD122" d="M61.045,94.226l-50.038,49.861c0.909,1.892,1.953,3.783,3.04,5.606c4.216,7.343,9.475,14.239,15.754,20.516
		c2.664,2.691,5.526,5.116,8.389,7.452c7.1,5.607,14.778,10.146,22.855,13.55C61.045,191.146,60.558,97.208,61.045,94.226z"/>
	<path fill="#FFC817" d="M4.084,74.313c-2.27,8.332-3.419,16.929-3.417,25.564c0,3.783,0.222,7.499,0.644,11.168
		c1.021,9.013,3.239,17.601,6.546,25.677c0,0,66.26-66.793,68.766-68.528H5.926C5.221,70.206,4.606,72.248,4.084,74.313z"/>
	<path fill="#FF7612" d="M50.105,14.261c-7.525,4.297-14.443,9.581-20.57,15.708c-2.707,2.693-5.148,5.496-7.477,8.367
		c-5.637,7.075-10.186,14.773-13.581,22.828c0,0,94.263-0.489,97.304,0L55.742,11.301C53.834,12.215,51.947,13.237,50.105,14.261z"
		/>
</g>
</svg>
