<?xml version="1.0" encoding="utf-8"?>
<!-- Generator: Adobe Illustrator 16.0.0, SVG Export Plug-In . SVG Version: 6.00 Build 0)  -->
<!DOCTYPE svg PUBLIC "-//W3C//DTD SVG 1.1//EN" "http://www.w3.org/Graphics/SVG/1.1/DTD/svg11.dtd">
<svg version="1.1" id="图层_1" xmlns="http://www.w3.org/2000/svg" xmlns:xlink="http://www.w3.org/1999/xlink" x="0px" y="0px"
	 width="200px" height="200px" viewBox="0 0 200 200" enable-background="new 0 0 200 200" xml:space="preserve">
<path fill="#1EBB56" d="M200,196.016c0,2.209-1.791,4-4,4H4c-2.209,0-4-1.791-4-4v-192c0-2.209,1.791-4,4-4h192c2.209,0,4,1.791,4,4
	V196.016z"/>
<path fill="#FFFFFF" d="M109.923,123.516c-0.152-0.051-0.446-0.115-0.751-0.179c-1.363-0.37-2.739-0.738-3.988-1.185h-0.013
	c-7.886-2.765-12.792-7.313-12.792-11.887c0-1.861,0.752-3.605,2.408-5.479c0.649-0.612,1.261-1.249,1.873-1.925
	c5.402-6.154,8.499-14.932,8.499-24.08c0-17.99-11.697-32.616-26.068-32.616S53.01,60.78,53.01,78.77
	c0,10.231,3.682,19.608,10.104,25.763c0.013,0.013,0.013,0.024,0.025,0.024c1.325,1.287,2.905,3.364,2.905,5.898
	c0,4.409-4.931,8.779-12.855,11.455c-0.038,0-0.077,0.012-0.114,0.025c-1.147,0.293-2.141,0.573-3.657,1.058
	c-17.709,5.694-28.284,16.002-28.284,27.558c0,1.822,1.478,3.313,3.313,3.313H133.2c1.822,0,3.313-1.479,3.313-3.313
	C136.5,139.492,126.601,129.401,109.923,123.516z"/>
<path fill="#FFFFFF" d="M156.038,114.628c-0.114-0.038-0.317-0.076-0.561-0.114c-0.955-0.242-1.897-0.509-2.739-0.79l-0.038-0.038
	c-5.466-1.897-8.879-5.07-8.879-8.243c0-1.261,0.56-2.497,1.668-3.81c0.471-0.395,0.866-0.866,1.313-1.351
	c3.759-4.242,5.898-10.345,5.898-16.677c0-12.486-8.129-22.627-18.104-22.627c-9.95,0-18.066,10.142-18.066,22.627
	c0,7.097,2.574,13.594,7.008,17.875c0.955,0.917,2.025,2.331,2.025,4.114c0,3.046-3.402,6.104-8.919,7.926
	c-0.038,0-0.038,0.038-0.076,0.038c-0.79,0.203-1.465,0.395-2.535,0.713c-1.185,0.396-2.331,0.79-3.401,1.223
	c1.313,0.828,2.854,1.543,4.562,2.141c0.993,0.357,2.063,0.638,3.173,0.918c0.241,0.076,0.433,0.114,0.598,0.153
	c10.333,3.644,17.392,9.389,19.875,15.912c0.243,0.638,0.828,1.083,1.517,1.083h31.827c1.286,0,2.306-1.069,2.293-2.356
	C174.437,125.688,167.582,118.706,156.038,114.628z"/>
</svg>
