<?xml version="1.0" encoding="utf-8"?>
<!-- Generator: Adobe Illustrator 16.0.0, SVG Export Plug-In . SVG Version: 6.00 Build 0)  -->
<!DOCTYPE svg PUBLIC "-//W3C//DTD SVG 1.1//EN" "http://www.w3.org/Graphics/SVG/1.1/DTD/svg11.dtd">
<svg version="1.1" id="图层_1" xmlns="http://www.w3.org/2000/svg" xmlns:xlink="http://www.w3.org/1999/xlink" x="0px" y="0px"
	 width="228.516px" height="200px" viewBox="0 0 228.516 200" enable-background="new 0 0 228.516 200" xml:space="preserve">
<path d="M59.647,155.827c11.943-4.447,18.307-6.866,24.657-9.591c22.638-9.704,27.219-22.247,18.896-33.075
	c-1.042-1.384-2.264-2.623-3.631-3.687C86.752,98.78,80.41,85.342,79.095,69.037c-1.209-14.905-0.4-26.448,2.991-34.934
	c2.971-7.429,8.219-12.667,15.238-16.181c4.037-1.979,8.35-3.347,12.791-4.057c2.617-0.438,4.607-0.581,5.646-0.581
	s3.029,0.143,5.648,0.571c4.381,0.733,8.762,2.048,12.791,4.067c7.019,3.504,12.267,8.762,15.235,16.181
	c3.393,8.486,4.201,20.029,3,34.934c-1.322,16.305-7.666,29.743-20.676,40.591c-1.289,1.021-2.441,2.207-3.428,3.522
	c-8.334,10.839-3.753,23.382,18.885,33.086c6.353,2.725,12.715,5.144,24.667,9.591c26.647,10.151,37.22,18.039,38.876,33.647h-190
	C22.419,173.855,32.99,165.979,59.647,155.827L59.647,155.827z"/>
<path d="M11,194.236c0,2.63,2.132,4.764,4.762,4.764l0,0h200c2.63,0,4.762-2.134,4.762-4.764l0,0
	c0-24.122-12.666-34.896-45.257-47.305c-12-4.477-18.15-6.817-24.295-9.457c-17.296-7.41-19.333-13-15.096-18.515
	c0.714-0.935,1.429-1.601,1.79-1.866c15.275-12.725,22.753-28.553,24.258-47.296c1.313-16.248,0.419-29.076-3.647-39.238
	c-3.886-9.714-10.829-16.667-19.81-21.152c-4.891-2.41-10.113-4.076-15.495-4.943c-2.381-0.422-4.792-0.658-7.21-0.705
	c-1.533,0-4.038,0.181-7.209,0.705c-5.383,0.866-10.606,2.532-15.496,4.942c-8.979,4.496-15.924,11.429-19.81,21.152
	C69.181,40.721,68.285,53.55,69.6,69.797c1.505,18.743,8.981,34.57,24.066,47.145c0.553,0.418,1.267,1.084,1.979,2.02
	c4.238,5.521,2.19,11.104-15.095,18.516c-6.143,2.639-12.286,4.979-24.295,9.457C23.667,159.342,11,170.114,11,194.236z"/>
</svg>
