<?xml version="1.0" encoding="utf-8"?>
<!-- Generator: Adobe Illustrator 16.0.0, SVG Export Plug-In . SVG Version: 6.00 Build 0)  -->
<!DOCTYPE svg PUBLIC "-//W3C//DTD SVG 1.1//EN" "http://www.w3.org/Graphics/SVG/1.1/DTD/svg11.dtd">
<svg version="1.1" id="图层_1" xmlns="http://www.w3.org/2000/svg" xmlns:xlink="http://www.w3.org/1999/xlink" x="0px" y="0px"
	 width="200px" height="200px" viewBox="0 0 200 200" enable-background="new 0 0 200 200" xml:space="preserve">
<path fill="#3468A5" d="M68.396,110.172l14.721-14.721c0.083-0.083,0.217-0.083,0.3,0l0,0l14.721,14.721
	c0.083,0.083,0.083,0.217,0,0.3l-14.721,14.721c-0.083,0.083-0.217,0.083-0.3,0l0,0l-14.721-14.721
	C68.313,110.389,68.313,110.255,68.396,110.172L68.396,110.172z"/>
<path fill="#3468A5" d="M19.3,49.479l-0.569-23.898c0,0,25.604,12.518,43.244-16.5c0,0,11.38,15.363-19.915,46.088
	c-31.294,30.726-21.053,75.107-21.053,75.107s15.932,50.641,66.572,46.088c50.641-4.551,51.677-38.286,51.677-38.286l5.125-20.251
	l-11.104,4.277l3.131-25.671c0,0,4.656-18.504-13.552-35.005c-18.208-16.501-30.726-30.157-22.759-50.072
	c7.965-19.915,50.071,2.845,50.071,2.845s40.968,16.501,47.796,84.78c0,0-3.983,24.467-3.414,30.726s4.226,19.606,4.226,19.606
	l0.834,8.732c0,0-12.526-17.4-17.366-9.699C145.535,206.77,66.882,214.77,21.576,159.294C-6.008,125.517-6.576,84.914,19.3,49.479
	L19.3,49.479z"/>
</svg>
