<?xml version="1.0" encoding="utf-8"?>
<!-- Generator: Adobe Illustrator 16.0.0, SVG Export Plug-In . SVG Version: 6.00 Build 0)  -->
<!DOCTYPE svg PUBLIC "-//W3C//DTD SVG 1.1//EN" "http://www.w3.org/Graphics/SVG/1.1/DTD/svg11.dtd">
<svg version="1.1" id="图层_1" xmlns="http://www.w3.org/2000/svg" xmlns:xlink="http://www.w3.org/1999/xlink" x="0px" y="0px"
	 width="200px" height="200px" viewBox="0 0 200 200" enable-background="new 0 0 200 200" xml:space="preserve">
<path fill="#FF8700" d="M200,196c0,2.209-1.791,4-4,4H4c-2.209,0-4-1.791-4-4V4c0-2.209,1.791-4,4-4h192c2.209,0,4,1.791,4,4V196z"
	/>
<path fill="#FFFFFF" d="M122.982,146.836c0-7.165,3.299-13.56,8.459-17.75l-6.321-2.464c0,0-5.89-2.286-8.177-4.535
	c-1.472-1.445-1.364-4.854-0.063-9.211c1.301-4.355,17.132-22.057,17.132-38.136c0-24.833-16.326-44.968-36.463-44.968
	c-20.136,0-36.46,20.135-36.46,44.969c0,15.401,14.106,33.761,15.847,37.099c1.742,3.337,1.318,8.424-0.058,9.964
	c-2.065,2.313-9.611,4.634-9.611,4.634l-27.839,12.407c-6.503,2.336-11.6,8.471-11.6,15.391v3.282
	c0,7.554,6.134,12.175,13.673,12.175h46.692h16.004h41.267c-0.978,0-1.935-0.079-2.869-0.229
	C131.509,167.888,122.982,158.358,122.982,146.836z"/>
<path fill="#FFFFFF" d="M151.197,126.369c-11.304,0-20.467,9.164-20.467,20.467c0,11.305,9.163,20.468,20.467,20.468
	c11.305,0,20.468-9.163,20.468-20.468C171.665,135.532,162.502,126.369,151.197,126.369L151.197,126.369z M162.88,149.757h-8.763
	v8.763h-5.841v-8.763h-8.761v-5.841h8.761v-8.762h5.842v8.762h8.762V149.757L162.88,149.757z"/>
</svg>
