<?xml version="1.0" standalone="no"?><!DOCTYPE svg PUBLIC "-//W3C//DTD SVG 1.1//EN" "http://www.w3.org/Graphics/SVG/1.1/DTD/svg11.dtd"><svg t="1527229973911" class="icon" style="" viewBox="0 0 1024 1024" version="1.1" xmlns="http://www.w3.org/2000/svg" p-id="8961" xmlns:xlink="http://www.w3.org/1999/xlink" width="200" height="200"><defs><style type="text/css"></style></defs><path d="M 270.731 850.385 C 342.163 890.395 425.274 912 512 912 C 758.968 912 960 737.028 960 520 C 960 302.972 758.968 128 512 128 C 265.032 128 64 302.972 64 520 C 64 600.612 91.8663 677.534 142.926 742.32 L 112.799 892.86 C 110.252 905.585 123.116 915.888 134.977 910.625 L 270.731 850.385 Z M 173.923 730.408 C 173.401 729.359 172.755 728.351 171.983 727.405 C 122.775 667.12 96 595.286 96 520 C 96 321.709 281.794 160 512 160 C 742.206 160 928 321.709 928 520 C 928 718.291 742.206 880 512 880 C 428.537 880 348.805 858.685 280.977 819.395 C 276.526 816.241 270.573 815.446 265.225 817.819 L 121.998 881.375 L 144.177 899.14 L 175.725 741.496 C 176.516 737.547 175.779 733.647 173.923 730.408 Z" p-id="8962"></path></svg>