<?xml version="1.0" encoding="utf-8"?>
<!-- Generator: Adobe Illustrator 16.0.0, SVG Export Plug-In . SVG Version: 6.00 Build 0)  -->
<!DOCTYPE svg PUBLIC "-//W3C//DTD SVG 1.1//EN" "http://www.w3.org/Graphics/SVG/1.1/DTD/svg11.dtd">
<svg version="1.1" id="图层_1" xmlns="http://www.w3.org/2000/svg" xmlns:xlink="http://www.w3.org/1999/xlink" x="0px" y="0px"
	 width="200px" height="200px" viewBox="0 0 200 200" enable-background="new 0 0 200 200" xml:space="preserve">
<path d="M52.877,166.091c13.952,7.814,30.185,12.034,47.123,12.034c48.236,0,87.5-34.174,87.5-76.563
	C187.5,59.174,148.236,25,100,25c-48.236,0-87.5,34.174-87.5,76.563c0,15.744,5.443,30.769,15.415,43.422l-5.884,29.402
	c-0.498,2.485,2.015,4.498,4.332,3.47L52.877,166.091z"/>
<path d="M33.969,142.658c-0.102-0.205-0.228-0.402-0.379-0.587c-9.611-11.774-14.84-25.805-14.84-40.509
	c0-38.729,36.288-70.313,81.25-70.313s81.25,31.584,81.25,70.313s-36.288,70.313-81.25,70.313c-16.301,0-31.874-4.163-45.122-11.837
	c-0.87-0.616-2.032-0.771-3.077-0.308l-27.974,12.413l4.332,3.47l6.162-30.79C34.476,144.053,34.332,143.291,33.969,142.658z"/>
</svg>
