<?xml version="1.0" encoding="utf-8"?>
<!-- Generator: Adobe Illustrator 16.0.0, SVG Export Plug-In . SVG Version: 6.00 Build 0)  -->
<!DOCTYPE svg PUBLIC "-//W3C//DTD SVG 1.1//EN" "http://www.w3.org/Graphics/SVG/1.1/DTD/svg11.dtd">
<svg version="1.1" id="图层_1" xmlns="http://www.w3.org/2000/svg" xmlns:xlink="http://www.w3.org/1999/xlink" x="0px" y="0px"
	 width="200px" height="200px" viewBox="0 0 200 200" enable-background="new 0 0 200 200" xml:space="preserve">
<path fill="#3468A5" d="M37.094,1.738h126.75c0.859,0,2.543,1.703,2.543,2.543v191.848c0,0.859-1.703,2.543-2.543,2.543H37.094
	c-0.859,0-2.543-1.703-2.543-2.543V4.281C34.551,3.422,36.234,1.738,37.094,1.738z M128.633,72.52l-17.285,31.387h12.461v8.945
	H108.77v7.715h15.039v8.945H108.77v12.969H94.531v-12.969H79.004v-8.945h15.527v-7.715H79.004v-8.945h12.754L74.961,72.52h14.98
	l12.285,28.125h0.176c0.391-1.055,0.996-2.578,1.855-4.57L114.414,72.5h14.219V72.52L128.633,72.52z M44.004,177.539H157.5V34.57
	H44.004V177.539z M85.723,22.871h31.152v-8.906H85.723V22.871z"/>
</svg>
