<?xml version="1.0" encoding="utf-8"?>
<!-- Generator: Adobe Illustrator 16.0.0, SVG Export Plug-In . SVG Version: 6.00 Build 0)  -->
<!DOCTYPE svg PUBLIC "-//W3C//DTD SVG 1.1//EN" "http://www.w3.org/Graphics/SVG/1.1/DTD/svg11.dtd">
<svg version="1.1" id="图层_1" xmlns="http://www.w3.org/2000/svg" xmlns:xlink="http://www.w3.org/1999/xlink" x="0px" y="0px"
	 width="200px" height="200px" viewBox="0 0 200 200" enable-background="new 0 0 200 200" xml:space="preserve">
<path fill="#29ABE2" d="M182.896,20.153H18.894c-7.991,0-14.47,6.484-14.47,14.471v130.632c0,7.993,6.479,14.472,14.47,14.472
	h164.002c7.992,0,14.47-6.479,14.47-14.472V34.624C197.365,26.637,190.888,20.153,182.896,20.153 M187.554,132.364l-49.564-43.136
	l-27.283,28.09l12.399,18.398l-56.98-49.775l-51.891,43.823V39.612c0-5.325,4.318-9.646,9.646-9.646h154.025
	c5.331,0,9.647,4.322,9.647,9.646V132.364z"/>
</svg>
