<?xml version="1.0" standalone="no"?><!DOCTYPE svg PUBLIC "-//W3C//DTD SVG 1.1//EN" "http://www.w3.org/Graphics/SVG/1.1/DTD/svg11.dtd"><svg t="1527232645162" class="icon" style="" viewBox="0 0 1024 1024" version="1.1" xmlns="http://www.w3.org/2000/svg" p-id="44891" xmlns:xlink="http://www.w3.org/1999/xlink" width="200" height="200"><defs><style type="text/css"></style></defs><path d="M512 32C248 32 32 248 32 512s216 480 480 480 480-216 480-480S776 32 512 32zM512 944C272 944 80 752 80 512S272 80 512 80 944 272 944 512 752 944 512 944z" p-id="44892"></path><path d="M758 488L536 488 536 266c0-12-12-24-24-24S488 254 488 266l0 222L266 488C254 488 242 500 242 512c0 12 12 24 24 24l222 0 0 222c0 12 12 24 24 24s24-12 24-24L536 536l222 0c12 0 24-12 24-24C782 500 770 488 758 488z" p-id="44893"></path></svg>