<?xml version="1.0" encoding="utf-8"?>
<!-- Generator: Adobe Illustrator 16.0.0, SVG Export Plug-In . SVG Version: 6.00 Build 0)  -->
<!DOCTYPE svg PUBLIC "-//W3C//DTD SVG 1.1//EN" "http://www.w3.org/Graphics/SVG/1.1/DTD/svg11.dtd">
<svg version="1.1" id="图层_1" xmlns="http://www.w3.org/2000/svg" xmlns:xlink="http://www.w3.org/1999/xlink" x="0px" y="0px"
	 width="200px" height="200px" viewBox="0 0 200 200" enable-background="new 0 0 200 200" xml:space="preserve">
<path fill="#4B74DB" d="M200,196c0,2.209-1.791,4-4,4H4c-2.209,0-4-1.791-4-4V4c0-2.209,1.791-4,4-4h192c2.209,0,4,1.791,4,4V196z"
	/>
<path fill="#FFFFFF" d="M62.394,138.637c7.953-2.961,12.19-4.572,16.419-6.387c15.075-6.462,18.125-14.814,12.583-22.024
	c-0.694-0.922-1.507-1.747-2.418-2.455c-8.535-7.122-12.758-16.07-13.634-26.928c-0.805-9.926-0.267-17.612,1.992-23.263
	c1.978-4.947,5.473-8.435,10.147-10.775c2.688-1.318,5.56-2.229,8.518-2.702c1.742-0.292,3.067-0.387,3.759-0.387
	s2.018,0.095,3.762,0.38c2.917,0.488,5.834,1.364,8.518,2.708c4.674,2.333,8.169,5.834,10.146,10.775
	c2.259,5.651,2.798,13.337,1.998,23.263c-0.881,10.857-5.105,19.806-13.769,27.029c-0.858,0.68-1.626,1.47-2.282,2.346
	c-5.55,7.218-2.5,15.57,12.575,22.032c4.23,1.814,8.467,3.426,16.426,6.387c17.745,6.76,24.785,12.013,25.888,22.406H36.499
	C37.604,150.642,44.644,145.396,62.394,138.637L62.394,138.637z"/>
<path fill="#FFFFFF" d="M30,164.214c0,1.751,1.419,3.172,3.171,3.172l0,0h133.182c1.751,0,3.171-1.421,3.171-3.172l0,0
	c0-16.063-8.435-23.237-30.137-31.501c-7.991-2.98-12.087-4.539-16.179-6.297c-11.518-4.935-12.874-8.657-10.052-12.329
	c0.475-0.623,0.951-1.066,1.191-1.243c10.172-8.474,15.151-19.013,16.154-31.495c0.873-10.82,0.278-19.362-2.43-26.129
	c-2.587-6.468-7.211-11.099-13.191-14.085c-3.256-1.605-6.734-2.714-10.318-3.292c-1.585-0.281-3.19-0.438-4.801-0.469
	c-1.021,0-2.689,0.121-4.8,0.469c-3.584,0.577-7.063,1.687-10.319,3.291c-5.979,2.994-10.604,7.611-13.191,14.085
	c-2.708,6.767-3.304,15.31-2.429,26.129c1.002,12.481,5.981,23.021,16.026,31.394c0.368,0.278,0.844,0.722,1.318,1.345
	c2.822,3.677,1.458,7.395-10.052,12.33c-4.09,1.757-8.182,3.315-16.178,6.298C38.435,140.978,30,148.15,30,164.214z"/>
<path fill="#4B74DB" d="M100,157.5L91.923,147L100,124.5l8.077,22.5L100,157.5z"/>
</svg>
