<?xml version="1.0" standalone="no"?><!DOCTYPE svg PUBLIC "-//W3C//DTD SVG 1.1//EN" "http://www.w3.org/Graphics/SVG/1.1/DTD/svg11.dtd"><svg t="1527232282863" class="icon" style="" viewBox="0 0 1024 1024" version="1.1" xmlns="http://www.w3.org/2000/svg" p-id="36098" xmlns:xlink="http://www.w3.org/1999/xlink" width="200" height="200"><defs><style type="text/css"></style></defs><path d="M512 56.88061a295.77917 295.77917 0 0 1 294.641558 295.77917v5.119254a25.027468 25.027468 0 0 0 3.697239 14.788959 121.440101 121.440101 0 0 1 19.339408 64.275089 97.550245 97.550245 0 0 1 0 15.92657 25.311871 25.311871 0 0 0 6.825673 21.899035 280.137002 280.137002 0 0 1 68.256731 109.779577c28.440305 87.311736 17.632989 168.082201-8.247688 176.898695a16.77978 16.77978 0 0 1-5.403658 0 54.605385 54.605385 0 0 1-34.128366-22.46784 25.027468 25.027468 0 0 0-19.339407-9.100898h-2.844031a25.311871 25.311871 0 0 0-19.908213 13.366943 326.210296 326.210296 0 0 1-31.568738 48.348519 25.311871 25.311871 0 0 0 10.23851 38.963217c35.550381 14.788958 56.88061 36.119187 56.880609 58.587028 0 42.376054-70.531956 76.788823-156.990482 76.788823a220.696765 220.696765 0 0 1-136.22906-38.963218 25.596274 25.596274 0 0 0-16.77978-6.256867h-52.614564a24.743065 24.743065 0 0 0-16.495377 6.256867A220.696765 220.696765 0 0 1 332.82608 966.970363c-85.320914 0-156.990482-34.412769-156.990483-76.788823 0-22.467841 20.477019-44.082472 56.88061-58.587028a25.311871 25.311871 0 0 0 10.23851-38.963217 327.916714 327.916714 0 0 1-31.568739-48.348518 25.311871 25.311871 0 0 0-19.908213-13.366944h-2.844031a25.311871 25.311871 0 0 0-19.62381 9.100898 54.320982 54.320982 0 0 1-33.843963 22.752244 16.77978 16.77978 0 0 1-5.688061 0c-26.16508-8.816494-35.550381-89.58696-8.247688-176.898696a280.990211 280.990211 0 0 1 68.825538-110.632786 25.311871 25.311871 0 0 0 6.825673-21.614631 98.119052 98.119052 0 0 1 0-15.357765 121.440101 121.440101 0 0 1 18.770601-63.706283 25.311871 25.311871 0 0 0 3.69724-14.788958v-5.688061A295.77917 295.77917 0 0 1 512 56.88061m0-56.88061A352.090973 352.090973 0 0 0 161.331042 352.375376a174.623471 174.623471 0 0 0-22.183438 85.320915v8.532091A331.613954 331.613954 0 0 0 67.193633 568.806096c-31.853141 101.816291-28.440305 222.97199 44.082472 247.146249a72.522777 72.522777 0 0 0 23.605453 3.981642 77.073226 77.073226 0 0 0 17.632989-1.990821 102.385097 102.385097 0 0 0-32.990753 72.80718C119.523794 966.970363 209.395157 1023.850973 332.82608 1023.850973a286.678272 286.678272 0 0 0 162.678543-44.366876h32.706351A286.678272 286.678272 0 0 0 690.889517 1023.850973c123.430923 0 213.302286-56.88061 213.302286-133.100627a102.385097 102.385097 0 0 0-32.990753-73.660389 76.220017 76.220017 0 0 0 18.201795 2.275224 72.80718 72.80718 0 0 0 23.32105-3.697239c71.385165-24.174259 75.935614-145.329958 44.082472-247.146249a330.760745 330.760745 0 0 0-71.385165-121.724505v-9.3853a174.907875 174.907875 0 0 0-22.752244-85.320915A352.090973 352.090973 0 0 0 512 0z" p-id="36099"></path></svg>