<?xml version="1.0" standalone="no"?><!DOCTYPE svg PUBLIC "-//W3C//DTD SVG 1.1//EN" "http://www.w3.org/Graphics/SVG/1.1/DTD/svg11.dtd"><svg t="1527055909569" class="icon" style="" viewBox="0 0 1024 1024" version="1.1" xmlns="http://www.w3.org/2000/svg" p-id="3254" xmlns:xlink="http://www.w3.org/1999/xlink" width="200" height="200"><defs><style type="text/css"></style></defs><path d="M240.071 241.095h59.278v59.278h-59.278v-59.278z" p-id="3255" fill="#bfbfbf"></path><path d="M405.959 134.485H133.348v272.611h106.723v47.445h59.278v-47.445h106.723v-59.278h47.445v-47.445h-47.445l-0.114-165.888z m-59.164 213.334H192.626V193.764h154.055v154.055h0.114zM240.071 727.154h59.278v59.278h-59.278v-59.278z m485.945-486.059h59.278v59.278h-59.278v-59.278zM512.683 509.042v63.943h59.278V513.82h47.445v-59.278h-47.445v-47.445h-59.278v101.945z m0 216.747v60.643h59.278V679.709h47.445v-59.278H512.683v105.358z m59.278 60.643h47.445v47.445h-47.445v-47.445z m-118.556 47.445v59.165h118.557v-59.165H453.405z" p-id="3256" fill="#bfbfbf"></path><path d="M678.685 679.709h-59.278v106.723h106.61v-59.278h-47.331v-47.445z m47.331 213.333h166.002v-59.165H785.295v-47.445h-59.278v106.61z m166.002-379.221v-59.278H785.295v59.278h106.723z m-59.279 213.333h59.278v59.278h-59.278v-59.278zM453.405 347.819h59.278v59.278h-59.278v-59.278z m272.611 106.723v-47.445h166.002V134.486H619.407v59.278H512.684v47.445h106.723v59.165h-47.445v47.445h47.445v59.278h59.278v47.445h47.331z m-47.331-260.779H832.74v154.055H678.685V193.763z m0 379.222h47.331v47.445h-47.331v-47.445z m106.609 106.724h-59.278v47.445h106.723V620.431h59.278v-47.445H785.294v106.723zM453.405 241.095h59.278v59.278h-59.278v-59.278zM299.349 513.821h47.445v59.165h-47.445v-59.165z m154.056-59.279h-106.61v59.278h59.165v59.165h47.445V454.542z" p-id="3257" fill="#bfbfbf"></path><path d="M405.959 786.432V679.709h47.445v-59.278H240.071v-106.61H133.348v59.278h59.278v47.445h-59.278v272.611h272.611v-59.278h47.445v-47.445h-47.445z m-59.164 47.445H192.626V679.708h154.055v154.169h0.114z m106.61-260.892h59.278v47.445h-59.278v-47.445z m166.001-59.164h59.278v59.165h-59.278v-59.165z m106.61 0h59.278v59.165h-59.278v-59.165z" p-id="3258" fill="#bfbfbf"></path></svg>