<?xml version="1.0" encoding="utf-8"?>
<!-- Generator: Adobe Illustrator 16.0.0, SVG Export Plug-In . SVG Version: 6.00 Build 0)  -->
<!DOCTYPE svg PUBLIC "-//W3C//DTD SVG 1.1//EN" "http://www.w3.org/Graphics/SVG/1.1/DTD/svg11.dtd">
<svg version="1.1" id="图层_1" xmlns="http://www.w3.org/2000/svg" xmlns:xlink="http://www.w3.org/1999/xlink" x="0px" y="0px"
	 width="200px" height="200px" viewBox="0 0 200 200" enable-background="new 0 0 200 200" xml:space="preserve">
<path fill="#29ABE2" d="M70.346,71.049h57.625c0,0,8.06-0.979,8.336-8.462s-3.816-10.596-8.336-10.722
	c-4.521-0.15-32.064,0-32.064,0s-4.67-33.897-36.86-33.47C26.857,18.822,16.261,29.268,18.37,52.72
	c2.109,23.452,5.499,47.883,5.499,47.883s1.557,9.19,8.763,9.04c7.207-0.151,10.571-3.592,10.872-14.689
	C43.806,84.106,43.229,71.049,70.346,71.049z M129.654,128.951H72.028c0,0-8.06,0.979-8.336,8.461
	c-0.276,7.482,3.816,10.597,8.336,10.723c4.52,0.15,32.064,0,32.064,0s4.671,33.896,36.86,33.47s42.785-10.872,40.677-34.324
	c-2.109-23.452-5.499-47.883-5.499-47.883s-1.557-9.19-8.764-9.04c-7.205,0.151-10.57,3.591-10.871,14.689
	C156.194,115.895,156.771,128.951,129.654,128.951z"/>
</svg>
