<?xml version="1.0" standalone="no"?><!DOCTYPE svg PUBLIC "-//W3C//DTD SVG 1.1//EN" "http://www.w3.org/Graphics/SVG/1.1/DTD/svg11.dtd"><svg t="1527238966585" class="icon" style="" viewBox="0 0 1024 1024" version="1.1" xmlns="http://www.w3.org/2000/svg" p-id="60646" xmlns:xlink="http://www.w3.org/1999/xlink" width="200" height="200"><defs><style type="text/css"></style></defs><path d="M420.7 6.7c56.2 0 109.9 11 161.1 32.9C633 61.6 677.1 91 714.1 128c37 37 66.4 81.1 88.4 132.3 21.9 51.2 32.9 104.9 32.9 161.1 0 48.2-7.9 94.4-23.6 138.6-15.7 44.1-38.1 84.2-67.2 120.2l261.7 261.4c8.9 8.9 13.3 19.8 13.3 32.8 0 13.2-4.4 24.2-13.1 32.9-8.8 8.8-19.7 13.1-32.9 13.1-13 0-23.9-4.4-32.8-13.3L679.5 745.5c-36 29-76.1 51.4-120.2 67.2-44.2 15.7-90.4 23.6-138.6 23.6-56.2 0-109.9-11-161.1-32.9-51.2-22-95.3-51.4-132.3-88.4-37-37-66.4-81.1-88.4-132.3-22-51.3-32.9-105-33-161.2 0-56.2 11-109.9 32.9-161.1 22-51.2 51.4-95.3 88.4-132.3 36.9-37 81-66.4 132.3-88.4 51.3-21.9 105-32.9 161.2-33z m0 92.2c-43.7 0-85.4 8.5-125.3 25.6-39.8 17-74.2 40-103 68.8-28.8 28.8-51.7 63.1-68.8 103C106.5 336.1 98 377.9 98 421.6s8.5 85.4 25.6 125.3c17.1 39.8 40 74.2 68.8 103 28.8 28.8 63.1 51.7 103 68.8 39.8 17.1 81.6 25.6 125.3 25.6s85.5-8.5 125.3-25.6 74.2-40 103-68.8c28.8-28.8 51.7-63.1 68.8-103 17.1-39.8 25.6-81.6 25.6-125.3s-8.5-85.5-25.6-125.3-40-74.2-68.8-103c-28.8-28.8-63.1-51.7-103-68.8-39.9-17-81.6-25.6-125.3-25.6z m0 0" p-id="60647"></path></svg>