<?xml version="1.0" encoding="utf-8"?>
<!-- Generator: Adobe Illustrator 16.0.0, SVG Export Plug-In . SVG Version: 6.00 Build 0)  -->
<!DOCTYPE svg PUBLIC "-//W3C//DTD SVG 1.1//EN" "http://www.w3.org/Graphics/SVG/1.1/DTD/svg11.dtd">
<svg version="1.1" id="图层_1" xmlns="http://www.w3.org/2000/svg" xmlns:xlink="http://www.w3.org/1999/xlink" x="0px" y="0px"
	 width="200.195px" height="200px" viewBox="0 0 200.195 200" enable-background="new 0 0 200.195 200" xml:space="preserve">
<path fill="#29ABE2" d="M193.8,92.316l-0.095,0.008c-0.386-3.704-3.31-6.642-7.004-7.001h-1.589h-2.71v-0.062
	c-4.625,0-8.638-2.664-10.548-6.552c-0.459-0.949-0.807-1.954-0.995-3.04c-0.875-2.413-1.86-4.764-2.957-7.067
	c0-0.008,0-0.008-0.022-0.008c-0.548-0.815-0.984-1.696-1.32-2.637c0-0.02,0-0.02,0-0.02c-0.438-1.221-0.667-2.554-0.667-3.914
	c0-3.258,1.293-6.203,3.448-8.327h-0.017l2.396-2.379c0.034-0.031,0.056-0.053,0.09-0.082c0.033-0.042,0.06-0.056,0.077-0.095
	c2.801-2.88,2.934-7.35,0.449-10.4l0.055-0.037c-1.837-2.203-3.756-4.313-5.766-6.306c-2.07-2.071-4.226-4.047-6.476-5.909
	l-0.029,0.028c-2.754-2.259-6.694-2.332-9.551-0.246l-1.725,1.718l-1.622,1.598l-0.074-0.067c-3.432,3.438-8.448,4.311-12.69,2.606
	c-0.581-0.235-1.131-0.506-1.68-0.831c-2.709-1.299-5.485-2.461-8.358-3.446c-0.51-0.128-1.007-0.308-1.505-0.509
	c0,0-0.012,0-0.012-0.009c-1.399-0.549-2.731-1.422-3.875-2.563c-1.925-1.926-3.032-4.364-3.357-6.85
	c-0.129-0.974-0.129-1.961,0-2.944v-2.024c0-3.863-2.789-7.068-6.46-7.731c-0.459-0.042-0.918-0.078-1.378-0.109h0.022
	c-2.608-0.202-5.217-0.319-7.871-0.319c-2.62,0-5.24,0.118-7.837,0.333c-0.454,0.023-0.919,0.064-1.361,0.118
	C87.11,7.88,84.31,11.1,84.31,14.949v3.496c0,5.058-3.168,9.358-7.646,11.023c-0.28,0.123-0.572,0.212-0.862,0.291
	c-3.146,1.066-6.192,2.324-9.091,3.782c-0.044,0-0.044,0.014-0.056,0.014c-0.235,0.128-0.459,0.241-0.694,0.347
	c-1.5,0.694-3.152,1.066-4.904,1.066c-3.247,0-6.191-1.313-8.313-3.448l-0.011,0.019l-2.48-2.469
	c-2.732-2.74-6.953-3.025-10.009-0.915c-0.347,0.294-0.7,0.582-1.03,0.865c-0.034,0.03-0.039,0.042-0.056,0.05
	c-1.999,1.699-3.93,3.463-5.777,5.308c-1.836,1.85-3.605,3.775-5.302,5.763c0,0-0.005,0-0.005,0.011
	c-0.308,0.356-0.605,0.703-0.896,1.073c-2.139,3.059-1.847,7.291,0.896,10.012l2.463,2.483c3.56,3.569,4.367,8.845,2.407,13.179
	c-0.128,0.271-0.257,0.54-0.403,0.807c-1.456,2.91-2.715,5.942-3.762,9.06c-0.095,0.338-0.224,0.661-0.335,0.977c0,0,0,0,0,0.014
	c-0.571,1.478-1.456,2.9-2.665,4.086c-2.307,2.295-5.296,3.451-8.308,3.451v0.031h-3.504c-3.863,0-7.076,2.785-7.726,6.46
	c-0.044,0.44-0.101,0.902-0.134,1.366c-0.212,2.539-0.313,5.268-0.313,7.842c0,0.031,0,0.051,0,0.064c0,0.026,0,0.055,0,0.068
	c0,2.6,0.101,5.176,0.313,7.714v0.009c0.034,0.459,0.09,0.921,0.134,1.365c0.649,3.679,3.846,6.472,7.703,6.472c0,0,0,0,0.005,0
	h3.521c4.994,0,9.266,3.135,10.973,7.552c0,0.012,0,0.012,0,0.012c0.101,0.292,0.212,0.588,0.269,0.882
	c0.022,0.003,0.022,0.036,0.039,0.059c1.052,3.133,2.324,6.175,3.773,9.097c0.017,0.009,0.017,0.048,0.028,0.052
	c0.134,0.223,0.247,0.462,0.348,0.708c0.699,1.494,1.075,3.162,1.075,4.9c0,3.241-1.311,6.186-3.443,8.313l0.005,0.012l-2.385,2.396
	c-0.034,0.014-0.062,0.059-0.09,0.078c-0.044,0.033-0.067,0.056-0.078,0.096c-2.615,2.696-2.917,6.802-0.885,9.818
	c0.325,0.414,0.683,0.829,1.019,1.227c1.68,1.973,3.426,3.874,5.263,5.707c1.842,1.842,3.74,3.603,5.721,5.281
	c0.404,0.34,0.807,0.667,1.198,1c2.732,1.831,6.349,1.761,9.002-0.182l1.724-1.717l1.612-1.604l0.067,0.048
	c3.566-3.552,8.856-4.357,13.211-2.373c0.213,0.086,0.448,0.204,0.661,0.316c0,0.014,0.022,0.014,0.056,0.03
	c2.956,1.472,6.007,2.743,9.175,3.82c0.274,0.077,0.548,0.171,0.812,0.266c1.534,0.583,2.978,1.473,4.232,2.713
	c2.295,2.293,3.459,5.296,3.459,8.311h0.022v3.466c0,4.045,3.067,7.392,7.031,7.79v0.051c2.838,0.268,5.721,0.402,8.622,0.402
	c2.934,0,5.811-0.136,8.666-0.402l-0.034-0.051c3.964-0.398,7.054-3.745,7.054-7.79v-3.495c0-4.727,2.788-8.791,6.774-10.663
	c0.822-0.39,1.679-0.669,2.574-0.86c2.588-0.9,5.084-1.941,7.529-3.123c0.7-0.464,1.473-0.858,2.257-1.135
	c1.282-0.492,2.671-0.758,4.132-0.758c2.978,0,5.71,1.12,7.792,2.974c0.348,0.296,0.684,0.628,1.008,1.002l2.011,2.009l0.005-0.009
	c2.743,2.761,7.076,3.027,10.144,0.811c0.006,0,0.017-0.01,0.034-0.031c0.258-0.216,0.503-0.423,0.75-0.627
	c2.065-1.744,4.041-3.553,5.945-5.462c1.881-1.889,3.706-3.873,5.441-5.927c0.225-0.278,0.447-0.538,0.673-0.821
	c2.148-2.956,1.959-7.06-0.521-9.831l-0.005-0.006l-0.583-0.556l-2.183-2.189v-0.011c-3.517-3.505-4.345-8.687-2.475-12.972
	c0.168-0.398,0.347-0.796,0.571-1.171c1.394-2.835,2.608-5.755,3.638-8.769c0.112-0.415,0.241-0.81,0.414-1.179
	c0.561-1.473,1.434-2.849,2.626-4.029c2.296-2.3,5.291-3.45,8.319-3.45v-0.005h3.376v-0.046c4.199,0,7.636-3.297,7.826-7.429
	l0.117,0.006c0.241-2.712,0.354-5.455,0.354-8.224C194.214,98.065,194.08,95.168,193.8,92.316z M99.997,163.319
	c-34.417,0-62.314-27.901-62.314-62.317c0-34.418,27.896-62.32,62.314-62.32s62.319,27.902,62.319,62.32
	C162.315,135.418,134.413,163.319,99.997,163.319z"/>
</svg>
