<?xml version="1.0" encoding="utf-8"?>
<!-- Generator: Adobe Illustrator 16.0.0, SVG Export Plug-In . SVG Version: 6.00 Build 0)  -->
<!DOCTYPE svg PUBLIC "-//W3C//DTD SVG 1.1//EN" "http://www.w3.org/Graphics/SVG/1.1/DTD/svg11.dtd">
<svg version="1.1" id="图层_1" xmlns="http://www.w3.org/2000/svg" xmlns:xlink="http://www.w3.org/1999/xlink" x="0px" y="0px"
	 width="200px" height="200px" viewBox="0 0 200 200" enable-background="new 0 0 200 200" xml:space="preserve">
<path fill="#4B74DB" d="M200,196c0,2.209-1.791,4-4,4H4c-2.209,0-4-1.791-4-4V4c0-2.209,1.791-4,4-4h192c2.209,0,4,1.791,4,4V196z"
	/>
<path fill="#FFFFFF" d="M140.45,52.525l-35.112,0.004c-1.299,0-2.454,0.519-3.34,1.323l-0.036-0.035l-56.749,56.75
	c-3.919,3.92-3.919,10.272,0,14.19l28.377,28.374c3.914,3.919,10.268,3.919,14.186,0l56.75-56.75
	c0.803-0.887,0.936-2.43,0.936-3.722V57.542C145.462,54.775,143.219,52.525,140.45,52.525z M124.078,79.395
	c-2.672,0-4.837-2.166-4.837-4.837c0-2.671,2.165-4.836,4.837-4.836c2.673,0,4.837,2.165,4.837,4.836
	C128.915,77.23,126.751,79.396,124.078,79.395z"/>
</svg>
