<?xml version="1.0" standalone="no"?><!DOCTYPE svg PUBLIC "-//W3C//DTD SVG 1.1//EN" "http://www.w3.org/Graphics/SVG/1.1/DTD/svg11.dtd"><svg t="1527232605712" class="icon" style="" viewBox="0 0 1024 1024" version="1.1" xmlns="http://www.w3.org/2000/svg" p-id="43971" xmlns:xlink="http://www.w3.org/1999/xlink" width="200" height="200"><defs><style type="text/css"></style></defs><path d="M714.60956793 130.46782302c4.24638735-5.48852867 11.67034699-4.01529151 17.73661527-4.36193528 31.371277 0.40441773 62.74255405-0.23109583 94.11383103 0.40441773-19.98979982 30.44689363-49.31010007 53.61426357-70.65759125 83.05010955 41.7128207 0.54885374 83.42564138 0.02888806 125.1384621 0.14443602 1.12659337-27.47153129-0.7510615-55.00083865 0.8377235-82.44348405 27.73151522-2.45539451 55.7230143-0.28886982 83.5700774-1.03993128 0.49107978 25.62276448-0.3177579 51.30330286 0.25998173 76.92606727-0.95327149 5.48852867 4.93967709 6.9906538 9.18606445 6.55734805 46.79693162 0.11554795 93.62275126-0.144436 140.44857093 0.08665983 0.08666203 19.52760812 0.02888806 39.0841043 0.02888589 58.61171245-47.721315 0.40441773-95.50040612-0.28886982-143.19283307 0.28886981-6.75955582-1.01104543-6.32625219 7.79948931-6.55734804 12.27697471 0.25998391 39.51741012-0.20220994 79.03481806 0.20220777 118.55222599-0.69328756 6.61512204 6.29736413 9.82157801 11.95921684 9.35938628 46.85470557 0.20220994 93.7382992-0.25998391 140.62189065 0.17332191-0.17332187 22.35853447 0.05777395 44.74595483-0.17332188 67.10448932-48.55903858 0.28886982-97.11807709-0.144436-145.64822759 0.17332187-5.92183445-1.2421413-7.62616742 5.14188489-7.07731373 9.70603227 0.05777395 43.73490942 0.05777395 87.46982097 0.05777398 131.20473037 50.86999923 0.69328756 101.76888437-0.02888806 152.63888145 0.37552967 0.34664378 21.49192503-0.144436 43.01273595 0.40441772 64.53354691-50.20559755 3.87085767-100.81561291 0.60662769-151.19453236 1.67544705 0.02888806 47.17246345-0.34664378 94.37381279 0.20220995 141.54627405 50.20559755-0.02888806 100.44008103-0.17332187 150.67456454 0.05777398 0.11554795 20.53865355-0.144436 41.10619301 0.28886981 61.67373462-13.98130551 2.77315239-28.25148086 1.70433298-42.40610826 1.76210695-106.59301135 0-213.18602272 0.05777395-319.77903406 0-1.32880116 8.83942065-2.02208869 17.76550117-2.36873463 26.72046977-28.13593293-0.23109583-56.27186586-0.02888806-84.37891069-0.11554792-0.25998391-207.4952841 0.17332187-415.01945625-0.23109586-622.51474038-18.66099867 11.52591102-34.31774912 27.24043543-51.18775495 41.13508106 0.08666203 129.67372144-0.02888806 259.34744068 0.05777399 388.99227408-0.05777395 25.82497441-10.63041349 52.28546023-31.08240721 68.66438627-25.44944258 21.17416716-59.70941771 25.94052235-91.65843435 27.81817722-45.69922631 0.20220994-91.39845259-0.17332187-137.12656702 0.17332193-3.87085767-15.59897648-2.28207261-31.68903271-2.45539447-47.54799532-0.05777395-186.81219674 0-373.62439345-0.02888594-560.436588 0.05777395-14.93457698-1.12659337-30.04247587 2.28207265-44.74595699 86.11213174 1.32880116 172.8597771-1.81988092 258.56749112 1.55989917 4.21750145 22.38742035-0.08666203 46.4791759 2.10875071 69.50210983 33.33559178-34.57773301 62.59811803-72.91077584 95.81816188-107.60405677m-267.060268 120.08323927c0.144436 162.77821732-0.20220994 325.55643251 0.14443597 488.33464982 16.84111775-0.23109583 33.68223554 0.69328756 50.4944674-0.34664375 16.55224795-1.44434908 31.05351914-15.80118642 31.54459672-32.64230421-1.76210692-151.59895011-0.34664378-303.57342989-0.83772138-455.34570186-27.12488751-0.11554795-54.22088909-0.08666203-81.34577871 0m312.52839843 20.71197543c-0.23109583 45.20814656 0.05777395 90.38740718-0.14443382 135.59555372 37.52420731 0.49107978 75.07730049 0.23109583 112.60150566 0.14443382-0.05777395-45.29480858 0.25998391-90.58961711-0.17332189-135.88442356-37.43754527 0.02888806-74.84620466-0.25998391-112.28374995 0.14443602m-0.02888592 207.92858995c-0.11554795 45.20814656 0 90.41629524-0.05777393 135.65332761 37.49531924 0.57773963 75.01952655 0.20220994 112.54373169 0.20220782-0.02888806-45.35258252 0.17332187-90.70516503-0.08665986-136.05774545-37.46643333 0.08666203-74.93286454-0.28886982-112.3992979 0.20221002m-0.02888806 207.92858987c-0.05777395 45.20814656 0 90.41629524-0.02888587 135.62443962 37.49531924 0.57773963 74.9906385 0.17332187 112.51484583 0.20220994 0.08666203-45.32369446 0.144436-90.676277-0.02888809-135.99997142-37.49531924 0.08666203-74.9906385-0.28886982-112.45707187 0.17332186z" fill="" p-id="43972"></path></svg>