<?xml version="1.0" standalone="no"?><!DOCTYPE svg PUBLIC "-//W3C//DTD SVG 1.1//EN" "http://www.w3.org/Graphics/SVG/1.1/DTD/svg11.dtd"><svg t="1526972318837" class="icon" style="" viewBox="0 0 1024 1024" version="1.1" xmlns="http://www.w3.org/2000/svg" p-id="43343" xmlns:xlink="http://www.w3.org/1999/xlink" width="200" height="200"><defs><style type="text/css"></style></defs><path d="M512.740693 3.413333c-19.42528 0-38.516053 1.140053-57.378133 3.304107a504.1664 504.1664 0 0 0-131.904853 33.378987s343.22432 338.449067 352.31744 350.86336V30.18752c-10.22976-3.648853-20.794027-6.611627-31.361707-9.345707C602.2656 9.56416 558.185813 3.413333 512.740693 3.413333z m0 0" fill="#FA5452" p-id="43344"></path><path d="M871.07584 150.367573c-13.86496-13.78304-28.29312-26.197333-42.949973-38.16448a513.119573 513.119573 0 0 0-117.019307-69.372586s2.495147 480.96256 0 496.110933l256.197973-255.286613c-4.652373-9.683627-9.997653-19.367253-15.561386-28.709547-21.82144-37.14048-48.513707-72.451413-80.667307-104.577707z m0 0" fill="#6467F0" p-id="43345"></path><path d="M983.66464 324.205227s-339.585707 341.981867-352.08192 351.092053h362.082987c3.631787-10.25024 6.703787-20.729173 9.434453-31.21152 11.359573-42.038613 17.48992-85.66784 17.48992-130.894507 0-19.367253-1.133227-38.393173-3.290453-57.186986-5.34528-46.475947-17.046187-90.443093-33.634987-131.79904z m0 0" fill="#5283F0" p-id="43346"></path><path d="M480.02048 713.120427l256.19456 255.29344a393.30816 393.30816 0 0 0 28.85632-15.49312 498.15552 498.15552 0 0 0 105.3184-80.428374c13.62944-13.554347 26.35776-28.13952 38.290773-42.837333 28.85632-36.21888 52.145493-75.40736 69.526187-116.538027-0.105813 0.003413-482.737493 2.512213-498.18624 0.003414z m0 0" fill="#00B1FE" p-id="43347"></path><path d="M348.5696 633.0368v360.779093c10.222933 3.642027 20.790613 6.608213 31.361707 9.33888a504.064 504.064 0 0 0 131.447466 17.42848c19.42528 0 38.516053-1.13664 57.371307-3.304106a503.944533 503.944533 0 0 0 131.91168-33.378987c-0.003413 0.003413-342.889813-338.445653-352.09216-350.86336z m0 0" fill="#66D020" p-id="43348"></path><path d="M312.552107 482.433707L56.357547 737.723733c4.655787 9.683627 9.997653 19.370667 15.561386 28.706134 21.589333 37.594453 48.510293 72.905387 80.663894 105.038506 13.636267 13.779627 28.29312 26.197333 42.949973 38.157654 36.352 28.709547 75.66336 51.944107 117.019307 69.376 0-0.33792-2.495147-481.297067 0-496.56832z m0 0" fill="#9AD122" p-id="43349"></path><path d="M20.91008 380.484267A497.629867 497.629867 0 0 0 3.413333 511.371947c0 19.367253 1.13664 38.393173 3.293867 57.183573 5.225813 46.144853 16.585387 90.112 33.518933 131.464533 0 0 339.247787-341.981867 352.08192-350.86336H30.34112a365.99808 365.99808 0 0 0-9.43104 31.327574z m0 0" fill="#FFC817" p-id="43350"></path><path d="M256.539307 73.014613a498.558293 498.558293 0 0 0-105.3184 80.428374c-13.858133 13.786453-26.35776 28.13952-38.283947 42.837333-28.859733 36.222293-52.15232 75.639467-69.533013 116.87936 0 0 482.628267-2.505387 498.19648 0L285.39904 57.862827c-9.76896 4.676267-19.428693 9.91232-28.859733 15.151786z m0 0" fill="#FF7612" p-id="43351"></path></svg>