<?xml version="1.0" standalone="no"?><!DOCTYPE svg PUBLIC "-//W3C//DTD SVG 1.1//EN" "http://www.w3.org/Graphics/SVG/1.1/DTD/svg11.dtd"><svg t="1526972425176" class="icon" style="" viewBox="0 0 1024 1024" version="1.1" xmlns="http://www.w3.org/2000/svg" p-id="44078" xmlns:xlink="http://www.w3.org/1999/xlink" width="200" height="200"><defs><style type="text/css"></style></defs><path d="M521.87 32C429.65 32 354.89 107.72 354.89 201.2v297.36c0 93.42 74.76 169.2 166.98 169.2 92.16 0 166.92-75.78 166.92-169.2V201.14C688.79 107.72 614.03 32 521.87 32zM236.69 456.2a34.98 34.98 0 0 0-34.02 42.36H201.89c0 164.64 121.32 300.36 278.28 321.18v87.6h-55.68a42 42 0 0 0-41.76 42.36 42 42 0 0 0 41.76 42.3H619.31a42 42 0 0 0 41.76-42.3 42 42 0 0 0-41.76-42.36h-55.68v-87.6c152.4-20.16 270.84-148.8 277.56-307.02A38.22 38.22 0 0 0 841.91 505.64c0-0.9-0.18-1.62-0.18-2.4 0-1.56 0.18-3.06 0.18-4.68h-0.72a34.92 34.92 0 0 0-34.2-28.2 34.98 34.98 0 0 0-34.08 28.2h-0.72c0 140.1-112.2 253.68-250.44 253.68-138.3 0-250.44-113.58-250.44-253.68h-0.72a34.8 34.8 0 0 0-33.9-42.3z" p-id="44079"></path></svg>