<?xml version="1.0" encoding="utf-8"?>
<!-- Generator: Adobe Illustrator 16.0.0, SVG Export Plug-In . SVG Version: 6.00 Build 0)  -->
<!DOCTYPE svg PUBLIC "-//W3C//DTD SVG 1.1//EN" "http://www.w3.org/Graphics/SVG/1.1/DTD/svg11.dtd">
<svg version="1.1" id="图层_1" xmlns="http://www.w3.org/2000/svg" xmlns:xlink="http://www.w3.org/1999/xlink" x="0px" y="0px"
	 width="200px" height="200px" viewBox="0 0 200 200" enable-background="new 0 0 200 200" xml:space="preserve">
<path fill="#29ABE2" d="M32.044,27.307c0,15.076,12.044,27.302,26.898,27.302c14.857,0,26.902-12.222,26.902-27.302
	C85.844,12.222,73.8,0,58.942,0C44.089,0,32.044,12.222,32.044,27.307z M114.16,27.307c-0.025,9.706,5.09,18.7,13.444,23.64
	c8.304,4.88,18.599,4.88,26.902,0c8.358-4.938,13.476-13.933,13.448-23.64c0.027-9.709-5.09-18.706-13.448-23.645
	c-8.305-4.875-18.598-4.875-26.902,0C119.285,8.533,114.16,17.547,114.16,27.307 M177.249,148.275l-0.036,0.018l-25.314-44.511
	h0.279V91.978h38.458V70.493H10.391v21.484h38.458v10.449l-26.08,45.858l-0.018-0.01L0,188.271l18.333,10.742l5.516-9.698
	l0.018,0.009l35.044-61.613l28.858,50.733l-0.08,0.138l0.235,0.139l6.031,10.604L99.996,200l6.022-10.671l6.031-10.604l0.236-0.138
	l-0.08-0.138l28.857-50.734l35.049,61.614l0.031-0.019l5.523,9.707L200,188.271L177.249,148.275z M131.009,102.432l-31.018,54.533
	l-30.253-53.178h0.28V91.982h60.986v10.449H131.009z"/>
</svg>
