<?xml version="1.0" encoding="utf-8"?>
<!-- Generator: Adobe Illustrator 16.0.0, SVG Export Plug-In . SVG Version: 6.00 Build 0)  -->
<!DOCTYPE svg PUBLIC "-//W3C//DTD SVG 1.1//EN" "http://www.w3.org/Graphics/SVG/1.1/DTD/svg11.dtd">
<svg version="1.1" id="图层_1" xmlns="http://www.w3.org/2000/svg" xmlns:xlink="http://www.w3.org/1999/xlink" x="0px" y="0px"
	 width="200px" height="200px" viewBox="0 0 200 200" enable-background="new 0 0 200 200" xml:space="preserve">
<path fill="#6467F0" d="M137.703,19.127c25.979,0,47.119,19.528,47.119,43.716c0,7.524-2.149,14.87-6.091,21.5
	c-5.911,9.675-15.406,16.843-26.873,20.245c-3.047,0.896-5.376,1.255-7.524,1.255c-5.018,0-8.96-3.941-8.96-8.958
	c0-5.017,3.942-8.958,8.96-8.958c0.355,0,1.074,0,1.97-0.357c7.704-2.151,13.796-6.629,17.199-12.543
	c2.33-3.762,3.405-7.882,3.405-12.182c0-14.155-13.08-25.799-29.025-25.799c-5.555,0-10.931,1.434-15.767,4.12
	c-8.421,4.839-13.437,12.9-13.437,21.68v75.071c0,15.228-8.421,29.202-22.396,37.087c-7.525,4.301-15.947,6.45-24.546,6.45
	c-25.979,0-47.12-19.529-47.12-43.716c0-7.526,2.149-14.872,6.092-21.501c5.911-9.676,15.408-16.842,26.875-20.245
	c3.224-0.896,5.374-1.254,7.524-1.254c5.017,0,8.957,3.942,8.957,8.958c0,5.016-3.94,8.959-8.957,8.959
	c-0.358,0-1.076,0-1.972,0.355c-7.704,2.33-13.796,6.811-17.199,12.542c-2.329,3.764-3.403,7.885-3.403,12.186
	c0,14.153,13.078,25.799,29.203,25.799c5.555,0,10.93-1.434,15.767-4.122c8.42-4.836,13.437-12.897,13.437-21.677V62.843
	c0-15.23,8.42-29.205,22.395-37.086C120.682,21.276,129.104,19.127,137.703,19.127L137.703,19.127z"/>
</svg>
