<?xml version="1.0" encoding="utf-8"?>
<!-- Generator: Adobe Illustrator 16.0.0, SVG Export Plug-In . SVG Version: 6.00 Build 0)  -->
<!DOCTYPE svg PUBLIC "-//W3C//DTD SVG 1.1//EN" "http://www.w3.org/Graphics/SVG/1.1/DTD/svg11.dtd">
<svg version="1.1" id="图层_1" xmlns="http://www.w3.org/2000/svg" xmlns:xlink="http://www.w3.org/1999/xlink" x="0px" y="0px"
	 width="200px" height="200px" viewBox="0 0 200 200" enable-background="new 0 0 200 200" xml:space="preserve">
<path fill="#29ABE2" d="M198.5,156.5c0,2.5-0.5,5.5-1.5,7.5c-1,2.5-2.5,4.5-4,6.5s-4,3-6,4c-2.5,1-5,1.5-7.5,1.5h-157
	c-2.5,0-5.5-0.5-8-1.5s-4.5-2.5-6.5-4c-2-2-3.5-4-4.5-6.5S2,159,2,156.5V48c0-5.5,2-10,5.5-14c4-4,8.5-5.5,14-5.5H179
	c5.5,0,10,2,14,5.5c4,4,5.5,8.5,5.5,14v29.5h-49c-5.5,0-10,2-14,5.5c-4,4-5.5,8.5-5.5,14c0,4,1,7,2.5,10c1,2.5,3,4.5,5.5,6.5
	s6.5,3,11.5,3h49V156.5L198.5,156.5z"/>
<path fill="#29ABE2" d="M140,97c0-2.5,1-5,3-7s4-3,7-3c2.5,0,5,1,7,3s3,4,3,7c0,2.5-1,5-3,7s-4,3-7,3c-2.5,0-5-1-7-3
	C140.5,102.5,140,100,140,97L140,97z"/>
</svg>
